<?xml version="1.0" encoding="utf-8"?>
<!-- Generator: Adobe Illustrator 17.1.0, SVG Export Plug-In . SVG Version: 6.00 Build 0)  -->
<!DOCTYPE svg PUBLIC "-//W3C//DTD SVG 1.1//EN" "http://www.w3.org/Graphics/SVG/1.1/DTD/svg11.dtd">
<svg xmlns="http://www.w3.org/2000/svg" x="131" y="21" width="25" height="25"><g fill="none" fill-rule="evenodd"><path d="M0.0934051498,12.5 C0.0934051498,5.59644029 5.59603227,0 12.3838676,0 C19.1717029,0 24.67433,5.59644029 24.67433,12.5 C24.67433,19.4035597 19.1717029,25 12.3838676,25 C5.59603227,25 0.0934051498,19.4035597 0.0934051498,12.5 Z" fill="#787878"/><path d="M14.2673906,12.7611639 L19,16.417629 L19,8 L14.2673906,12.7611639 Z M6,8 L6,16.417629 L10.7325078,12.7606519 L6,8 Z M12.5,14.5391092 L11.3700918,13.402668 L6,17 L19,17 L13.6297813,13.402668 L12.5,14.5391092 Z M18.61,8 L6.39,8 L12.5,13.0951988 L18.61,8 Z" fill="#FFF"/></g></svg>