<?xml version="1.0" encoding="utf-8"?>
<!-- Generator: Adobe Illustrator 17.1.0, SVG Export Plug-In . SVG Version: 6.00 Build 0)  -->
<!DOCTYPE svg PUBLIC "-//W3C//DTD SVG 1.1//EN" "http://www.w3.org/Graphics/SVG/1.1/DTD/svg11.dtd">
<svg xmlns="http://www.w3.org/2000/svg" x="33" y="54" width="25" height="25"><g fill="none" fill-rule="evenodd"><path d="M0.0467876433,12.5 C0.0467876433,5.59644029 5.55943777,0 12.3596371,0 C19.1598364,0 24.6724865,5.59644029 24.6724865,12.5 C24.6724865,19.4035597 19.1598364,25 12.3596371,25 C5.55943777,25 0.0467876433,19.4035597 0.0467876433,12.5 Z" fill="#4099FF"/><path d="M13.8222162,19.1627671 L13.8222162,12.0805544 L15.7451674,12.0805544 L16,9.63998463 L13.8222162,9.63998463 L13.8254833,8.41845599 C13.8254833,7.78191781 13.8849714,7.44084612 14.7842363,7.44084612 L15.9863871,7.44084612 L15.9863871,5 L14.0631636,5 C11.7530629,5 10.9399673,6.18393889 10.9399673,8.17495181 L10.9399673,9.64026102 L9.5,9.64026102 L9.5,12.0808307 L10.9399673,12.0808307 L10.9399673,19.1627671 L13.8222162,19.1627671 Z" fill="#FFF"/></g></svg>