<?xml version="1.0" encoding="utf-8"?>
<!-- Generator: Adobe Illustrator 17.1.0, SVG Export Plug-In . SVG Version: 6.00 Build 0)  -->
<!DOCTYPE svg PUBLIC "-//W3C//DTD SVG 1.1//EN" "http://www.w3.org/Graphics/SVG/1.1/DTD/svg11.dtd">
<svg xmlns="http://www.w3.org/2000/svg" x="220" y="54" width="16" height="16"><defs><path id="icon-homedelivery-16x16-000000_SVGID_41_" d="M0 1H16V15H0z"/></defs><clipPath id="icon-homedelivery-16x16-000000_SVGID_4_"><use xlink:href="#icon-homedelivery-16x16-000000_SVGID_41_" xmlns:xlink="http://www.w3.org/1999/xlink" overflow="visible"/></clipPath><path d="M15,1H4C3.45,1,3,1.45,3,2v2.5H1c-0.55,0-1,0.45-1,1v6v1.75C0,14.213,0.9,15,2,15 h1.999H4h8.5H15c0.55,0,1-0.45,1-1V2C16,1.45,15.55,1,15,1 M15,14H4V2h11V14z"/><path d="M13 5L13 4 12.5 4 6 4 6 5"/><path d="M6 6H13V7H6z"/><path d="M6 8H13V9H6z"/></svg>