<?xml version="1.0" encoding="utf-8"?>
<!-- Generator: Adobe Illustrator 17.1.0, SVG Export Plug-In . SVG Version: 6.00 Build 0)  -->
<!DOCTYPE svg PUBLIC "-//W3C//DTD SVG 1.1//EN" "http://www.w3.org/Graphics/SVG/1.1/DTD/svg11.dtd">
<svg xmlns="http://www.w3.org/2000/svg" x="112" y="280" width="16" height="16"><g id="Layer_1"><path d="M16,8c0-0.85-1.013-1.523-1.251-2.291c-0.247-0.795,0.185-1.96-0.277-2.622C14.006,2.418,12.81,2.49,12.17,2.003 c-0.634-0.481-0.936-1.695-1.697-1.954C9.737-0.2,8.813,0.588,8,0.588c-0.815,0-1.738-0.788-2.474-0.539 C4.766,0.307,4.464,1.521,3.83,2.003C3.189,2.49,1.994,2.418,1.527,3.087C1.066,3.749,1.499,4.912,1.251,5.709 C1.013,6.477,0,7.15,0,8c0,0.851,1.013,1.523,1.251,2.292c0.248,0.795-0.185,1.96,0.276,2.622c0.467,0.668,1.662,0.597,2.304,1.084 c0.633,0.481,0.934,1.694,1.696,1.954c0.734,0.249,1.658-0.54,2.473-0.54c0.813,0,1.737,0.789,2.473,0.539 c0.761-0.259,1.063-1.473,1.697-1.954c0.64-0.487,1.836-0.415,2.302-1.084c0.462-0.662,0.03-1.826,0.277-2.622 C14.987,9.523,16,8.851,16,8 M11.214,4.97c-0.094,0.36-0.2,0.547-0.567,0.796c-0.372,0.251-0.82,0.23-0.82,0.23v1.56l0.759,0.615 L9.826,8.784v2.125c0,0,0.761-0.436,1.232-1.412c0,0,0.019-0.054,0.064-0.154c0.042,0.262,0.018,0.791-0.278,1.471 c-0.223,0.513-0.629,1.005-1.137,1.285c-0.902,0.5-1.577,0.548-2.303,0.398c-0.849-0.175-1.618-0.652-2.145-1.484 c-0.37-0.584-0.535-1.265-0.52-1.998c0.03-1.438,1.101-2.68,2.337-3.143C7.227,5.816,7.287,5.779,7.5,5.759 C7.401,5.826,7.288,5.912,7.148,6.005C6.751,6.266,6.41,6.787,6.265,7.188l2.398-1.07v3.354l-1.935,0.969 c0.22,0.306,0.891,0.769,1.462,0.833c0.976,0.108,1.546-0.317,1.546-0.317V8.784L8.981,8.171l0.756-0.613V5.996 C9.326,5.947,8.826,5.812,8.532,5.74c-0.43-0.106-1.863-0.51-2.09-0.543C6.218,5.164,5.939,5.175,5.771,5.324 C5.603,5.477,5.5,5.742,5.57,5.982c0.041,0.137,0.135,0.217,0.205,0.293c0,0-0.083-0.006-0.232-0.097 C5.272,6.017,5.066,5.699,5.042,5.307C5.01,4.793,5.222,4.33,5.644,4.019c0.368-0.236,0.785-0.388,1.27-0.318 c0.706,0.1,1.655,0.498,2.502,0.701c0.327,0.08,0.581,0.107,0.811-0.027c0.108-0.078,0.297-0.277,0.142-0.542 c-0.181-0.311-0.525-0.304-0.817-0.358c0.251-0.053,0.306-0.053,0.495-0.035c0.241,0.02,0.618,0.139,0.901,0.389 C11.251,4.121,11.319,4.566,11.214,4.97"/><path d="M7.195,6.867L6.222,7.302c0,0-0.248,0.556-0.205,1.363c0.035,0.631,0.387,1.385,0.658,1.7l0.52-0.26V6.867z"/></g></svg>