<?xml version="1.0" encoding="utf-8"?>
<!-- Generator: Adobe Illustrator 17.1.0, SVG Export Plug-In . SVG Version: 6.00 Build 0)  -->
<!DOCTYPE svg PUBLIC "-//W3C//DTD SVG 1.1//EN" "http://www.w3.org/Graphics/SVG/1.1/DTD/svg11.dtd">
<svg xmlns="http://www.w3.org/2000/svg" y="313" width="25" height="25"><g fill="none" fill-rule="evenodd"><path d="M0,12.7272727 C0,5.94923228 5.50262712,0.454545455 12.2904624,0.454545455 C19.0782977,0.454545455 24.5809249,5.94923228 24.5809249,12.7272727 C24.5809249,19.5053132 19.0782977,25 12.2904624,25 C5.50262712,25 0,19.5053132 0,12.7272727 Z" fill="#333"/><path d="M11.9862685,10.2268999 L12.0120221,10.651564 L11.5827961,10.5995643 C10.0204136,10.4002322 8.65547512,9.72423636 7.49656505,8.58891002 L6.92998679,8.02558015 L6.78404997,8.44157759 C6.47500728,9.36890521 6.67245122,10.3482325 7.31629015,11.0068951 C7.65967091,11.3708929 7.58241024,11.4228926 6.99007842,11.2062272 C6.78404997,11.1368943 6.60377507,11.0848946 6.58660603,11.1108945 C6.52651439,11.1715608 6.73254285,11.9602226 6.89564871,12.2722207 C7.11884621,12.7055513 7.57382572,13.1302154 8.07172782,13.3815472 L8.49236926,13.5808793 L7.99446715,13.5895459 C7.51373408,13.5895459 7.49656505,13.5982125 7.54807216,13.7802114 C7.71976254,14.3435412 8.39793955,14.9415376 9.15337722,15.201536 L9.6856174,15.3835348 L9.22205337,15.6608665 C8.53529185,16.0595307 7.72834706,16.2848626 6.92140227,16.3021958 C6.53509891,16.3108625 6.21747171,16.3455289 6.21747171,16.3715288 C6.21747171,16.4581949 7.26478303,16.9435252 7.87428388,17.1341907 C9.70278644,17.6975206 11.8746698,17.4548554 13.5057284,16.4928613 C14.6646384,15.8081989 15.8235485,14.4475406 16.3643732,13.1302154 C16.6562469,12.4282197 16.9481205,11.1455609 16.9481205,10.5302314 C16.9481205,10.1315672 16.9738741,10.0795675 17.4546071,9.60290377 C17.7378963,9.32557215 18.0040164,9.02224068 18.0555235,8.93557455 C18.1413687,8.7709089 18.1327841,8.7709089 17.6949737,8.91824132 C16.9652895,9.17823972 16.8622753,9.14357327 17.2228251,8.75357567 C17.4889452,8.47624404 17.8065724,7.97358047 17.8065724,7.82624805 C17.8065724,7.80024821 17.6778046,7.84358127 17.5318678,7.92158079 C17.3773465,8.00824693 17.0339657,8.13824612 16.7764301,8.21624564 L16.3128661,8.36357807 L15.8922247,8.07757983 C15.6604427,7.92158079 15.3342309,7.74824853 15.1625406,7.69624885 C14.7247301,7.57491626 14.0551376,7.59224949 13.6602497,7.7309153 C12.5871848,8.1209129 11.9090078,9.12624004 11.9862685,10.2268999 Z" fill="#FFF"/></g></svg>